<svg width="70" height="70" viewBox="0 0 70 70" fill="none" xmlns="http://www.w3.org/2000/svg">
<rect width="70" height="70" rx="10" fill="#242424"/>
<mask id="mask0_195_403" style="mask-type:alpha" maskUnits="userSpaceOnUse" x="11" y="11" width="48" height="49">
<rect x="11" y="11.39" width="48" height="48" fill="#D9D9D9"/>
</mask>
<g mask="url(#mask0_195_403)">
<path d="M50.9 53.39C46.7333 53.39 42.6167 52.4817 38.55 50.665C34.4833 48.8484 30.7833 46.2733 27.45 42.94C24.1167 39.6067 21.5417 35.9067 19.725 31.84C17.9083 27.7733 17 23.6567 17 19.49C17 18.89 17.2 18.39 17.6 17.99C18 17.59 18.5 17.39 19.1 17.39H27.2C27.6667 17.39 28.0833 17.5483 28.45 17.865C28.8167 18.1817 29.0333 18.5567 29.1 18.99L30.4 25.99C30.4667 26.5233 30.45 26.9733 30.35 27.34C30.25 27.7067 30.0667 28.0233 29.8 28.29L24.95 33.19C25.6167 34.4233 26.4083 35.615 27.325 36.765C28.2417 37.915 29.25 39.0233 30.35 40.09C31.3833 41.1233 32.4667 42.0817 33.6 42.965C34.7333 43.8483 35.9333 44.6567 37.2 45.39L41.9 40.69C42.2 40.39 42.5917 40.165 43.075 40.015C43.5583 39.865 44.0333 39.8233 44.5 39.89L51.4 41.29C51.8667 41.4233 52.25 41.665 52.55 42.015C52.85 42.365 53 42.7567 53 43.19V51.29C53 51.89 52.8 52.39 52.4 52.79C52 53.19 51.5 53.39 50.9 53.39Z" fill="white"/>
</g>
</svg>
